<?xml version="1.0" encoding="UTF-8"?>
<!DOCTYPE svg PUBLIC "-//W3C//DTD SVG 1.1//EN" "http://www.w3.org/Graphics/SVG/1.1/DTD/svg11.dtd">
<!-- Creator: CorelDRAW (Evaluation Version) -->
<svg xmlns="http://www.w3.org/2000/svg" xml:space="preserve" width="84.6667mm" height="72.9018mm" version="1.1" style="shape-rendering:geometricPrecision; text-rendering:geometricPrecision; image-rendering:optimizeQuality; fill-rule:evenodd; clip-rule:evenodd"
viewBox="0 0 2754.87 2372.06"
 xmlns:xlink="http://www.w3.org/1999/xlink"
 xmlns:xodm="http://www.corel.com/coreldraw/odm/2003">
 <defs>
  <style type="text/css">
   <![CDATA[
    .fil0 {fill:fuchsia}
   ]]>
  </style>
 </defs>
 <g id="Layer_x0020_1">
  <metadata id="CorelCorpID_0Corel-Layer"/>
  <path class="fil0" d="M725.52 213.69c102.67,-34.95 164.46,-50.49 270.73,-71.2 24.56,-4.78 45.78,-8.44 71.64,-12.24 26.39,-3.88 49.06,-6.89 75.81,-10.22l75.67 -7.68c0,-3.74 -0.64,-9.14 -0.67,-11.56 -0.03,-2.31 0.57,-5.89 0.67,-11.69 0,-6.61 0.6,-7.84 1.72,-11.75 8.3,-28.92 12.31,-44.23 43.42,-58.01 13.16,-5.83 29.6,-9.91 45.45,-12.61l80.52 -6.73 5.37 0c8.87,0.31 12.67,1.49 21.44,2.08 53.7,3.56 85.5,18.88 112.93,61.73l0.98 3.75c7.06,19.68 3.98,23.27 2.15,43.98 11.26,0.6 28.63,3.02 39.1,4.2 161.44,18.28 235.43,33.49 393.62,77.36 68,18.85 149.97,53.14 213.88,85.04 92.25,46.05 199.47,121.96 262.48,206.35 25.12,33.63 63.69,95.73 80.15,132.75 4.61,10.37 9.15,19.15 13.56,29.46 8.96,21.01 16.96,39.17 25.49,60.53 27,67.57 43.16,118.96 63.96,189.81 15.8,53.82 39.85,150.31 50.61,205.3l27.98 144.06c4.12,24.99 8.74,46.84 12.1,71.78 5.08,37.7 37.65,258.86 38.6,301.19 -11.72,2.73 -22.61,8.49 -32.56,12.6 -10.82,4.47 -21.41,8.64 -31.9,13.27 -12.93,5.71 -54.64,21.86 -62.42,27.9 0,33.77 -0.36,63.9 -2.14,96.78 -0.53,9.8 -2.26,11.71 -2.22,23.59 0.1,25.84 -6.74,85.96 -8.62,113.96l-17.13 131.64c-3.92,15.41 -6.54,33.25 -9.85,49.99 -8.81,44.54 -22.44,93.37 -39.28,134.91 -23.37,57.65 -48.44,96.74 -106.4,125.86 -27.79,13.97 -59.52,20.72 -93.03,22.19l-29.48 0c-87.75,-3.63 -183.09,-38.14 -250.28,-71.68 -25.27,-12.61 -52.87,-30.92 -75.97,-42.31 -13.24,-6.53 -23.97,-13.04 -38,-20.06 -56.03,-28.01 -103.34,-47.1 -162.01,-70.25 -45.98,-18.14 -83.1,-29.02 -129.82,-44.38 -66.03,-21.7 -225.77,-59.8 -287.39,-59.83 -66.54,-0.03 -221.97,39.68 -288.45,60.92 -92.25,29.48 -126.83,42.95 -212.33,78l-117.14 57.06c-13.4,6.63 -24.42,13.31 -37.07,20.99l-78.66 39.62c-48.59,19.85 -76.23,30.92 -132.13,42.06 -68.65,13.69 -144.77,14.59 -199.49,-13.07 -84.2,-42.57 -108.86,-121.64 -134.31,-214.08l-19.8 -95.75c-0.51,-6.81 -2.84,-17.01 -3.68,-22.72 -9.9,-67.44 -16.43,-132.99 -22.02,-201.64l-4.43 -94.5c0.08,-16.48 0.01,-32.99 0.01,-49.48l-95.87 -39.62c-8.15,-3.42 -22.89,-11.32 -31.02,-12.02l17.2 -154.81c5.5,-49.49 13.47,-100.54 21.51,-148.38 32.26,-191.85 51.47,-277.64 100.6,-454.24 3.45,-12.4 6.85,-20.47 10.31,-32.7 16.35,-57.62 68.64,-191.86 97.78,-242.01l30.69 -53.19c38.51,-65 115.07,-144.65 175.52,-181.59 0.43,-0.26 0.98,-0.57 1.39,-0.83 0.41,-0.27 0.94,-0.61 1.34,-0.89 0.39,-0.27 0.89,-0.65 1.26,-0.93 75.7,-56.67 178.1,-105.5 267.92,-136.07z"/>
 </g>
</svg>
