<?xml version="1.0" encoding="UTF-8"?>
<!DOCTYPE svg PUBLIC "-//W3C//DTD SVG 1.1//EN" "http://www.w3.org/Graphics/SVG/1.1/DTD/svg11.dtd">
<!-- Creator: CorelDRAW X7 -->
<svg xmlns="http://www.w3.org/2000/svg" xml:space="preserve" width="84.6666mm" height="90.4926mm" version="1.1" style="shape-rendering:geometricPrecision; text-rendering:geometricPrecision; image-rendering:optimizeQuality; fill-rule:evenodd; clip-rule:evenodd"
viewBox="0 0 9505 10159"
 xmlns:xlink="http://www.w3.org/1999/xlink">
 <defs>
  <style type="text/css">
   <![CDATA[
    .fil0 {fill:red}
   ]]>
  </style>
 </defs>
 <g id="Layer_x0020_1">
  <metadata id="CorelCorpID_0Corel-Layer"/>
  <path class="fil0" d="M7858 4529c67,6 170,126 99,114 -15,-2 -92,-55 -99,-114zm-5741 5630l-14 0c-66,-1 -108,-10 -164,-10 0,-112 10,-284 -1,-388 -14,-119 -16,-225 -9,-363 2,-38 12,-52 10,-95 -1,-41 -8,-39 -10,-85 -5,-185 -20,-374 -9,-571 3,-53 16,-127 19,-180 3,-60 0,-130 0,-190l9 -1151c0,-73 10,-111 10,-189l1 -761c-8,-56 -17,-110 -8,-178 6,-50 19,-110 17,-174 -2,-65 -20,-99 -20,-170 0,-119 -8,-275 1,-390 5,-63 19,-103 19,-181l9 -950c-1,2 -3,4 -4,6 -118,220 -80,219 -129,355 -11,33 -33,83 -48,114 -80,-7 -116,-64 -237,-124 -79,-38 -142,-88 -215,-137 -98,-65 -342,-192 -463,-250 -144,-69 -97,-86 -283,-172l-165 -92c-80,-49 -385,-208 -433,-280 13,-57 186,-326 225,-374 80,-97 75,-97 136,-216 30,-58 72,-76 110,-127l191 -284c15,-26 29,-54 45,-79 15,-22 32,-42 49,-65 38,-50 66,-83 101,-136 113,-170 276,-383 402,-549 37,-50 57,-96 93,-144 36,-49 71,-82 108,-131l99 -130 97 -25c22,-8 4,-5 25,-50 9,-18 15,-25 26,-50l46 -98c20,-36 34,-58 53,-91 25,-45 41,-46 51,-93 3,-30 28,-48 67,-91l217 -164c16,-14 21,-24 39,-36 30,-21 71,-30 108,-45 56,-22 51,-31 92,-60l408 -200c153,-77 51,-42 208,-96 48,-16 8,8 40,-36 53,-70 83,-45 92,-44 127,12 191,-93 277,-93 -3,43 -5,34 16,69l27 83c-2,21 -10,22 6,15 -6,19 -8,13 12,13l-3 6 48 86c2,2 7,9 9,11 16,16 -6,0 19,14 0,-48 -21,-75 -33,-133 -11,-55 -4,-78 -7,-145l318 156c40,16 63,33 103,49 41,17 83,27 121,41 183,66 179,37 391,65 197,26 397,12 588,-15 253,-36 150,-15 384,-82 43,-12 74,-28 118,-35 42,-1 65,-13 84,-38 32,-5 24,1 36,-22l30 -15 20 -10c33,-4 124,-68 144,-85 26,-22 16,-24 57,-29 -11,118 1,23 2,75l-5 85c-5,25 -51,89 -51,161l112 -197 33 -114 11 -38c27,12 31,20 72,35 223,78 221,16 394,158 53,43 356,155 458,206 113,58 170,60 299,139 147,89 250,119 300,147 85,48 210,221 264,287 19,23 33,41 51,63 38,48 54,79 86,133 103,170 91,129 185,252 18,25 27,45 43,71 134,208 300,399 411,587 100,169 165,248 257,399 30,50 62,90 90,137l253 403c34,49 60,85 94,135 32,48 56,84 90,129 39,52 157,205 163,274 -53,14 -150,107 -197,145 -104,84 -181,120 -205,138 -18,15 -23,28 -39,47l-134 122c-75,54 -228,155 -288,216 -31,30 -55,57 -88,83 -18,14 -29,26 -48,37 -127,79 -51,42 -138,109 -119,93 -83,63 -210,132 -75,41 -109,102 -193,138 -83,-20 -86,-29 -158,-125 -49,-67 4,-158 -115,-171 -3,-56 -16,-51 -48,-75 -82,-63 -90,-232 -124,-313l-85 -306c0,-3 -1,-4 -2,-7 -31,48 1,126 18,173 28,80 56,472 77,519 0,130 4,235 22,351 15,102 6,247 6,365 0,64 10,106 10,180l0 542c-1,117 24,234 5,357 -12,83 -12,266 -5,355 19,225 -9,495 10,723 4,55 12,110 9,181 -4,71 -13,88 -3,164 32,237 -9,528 16,706 16,111 6,240 6,356l15 1268c6,43 -6,108 -6,167l-274 -11c-147,-16 -59,-4 -163,2 -98,5 -194,-10 -266,-10 -123,0 -248,-2 -371,0 -61,0 -106,10 -181,9 -81,0 -85,15 -161,1 -86,-17 -91,-1 -171,0 -31,0 -63,-3 -94,1 -147,17 -58,4 -163,-2 -29,-1 -65,0 -95,1 -60,0 -120,0 -180,0l-727 4c-235,-34 -196,17 -337,5 -97,-9 -457,12 -509,4 -68,-10 -1209,-20 -1277,-12 -110,12 -240,6 -363,8 -57,0 -97,9 -164,10zm5412 -6406c38,23 36,9 27,56 7,1 14,0 18,2 16,4 11,3 19,8 -3,26 -1,20 -10,37 -33,-26 -17,-20 -73,-19l19 -84zm74 -49c-61,-83 -7,-125 -55,-188 27,-4 27,-8 54,-9 12,30 -10,7 27,29 -21,39 1,77 20,102 -14,20 -33,46 -46,66zm-75 -256c0,-37 21,-19 65,-16l-9 44c-39,-20 -56,16 -56,-28zm-3832 -2851c16,-7 -2,-6 25,-5l91 27c34,10 70,22 109,32 269,70 533,71 812,72 291,1 514,-29 787,-100 49,-13 174,-68 207,-55 -88,52 -329,130 -453,144 -91,11 -186,29 -275,36 -259,20 -593,10 -845,-19 -68,-7 -169,-34 -239,-51 -48,-11 -73,-23 -119,-38 -22,-8 -38,-9 -58,-18 -2,-1 -4,-2 -6,-3l-18 -10c-12,-7 -9,-4 -18,-12zm0 0c9,8 6,5 18,12l18 10c2,1 4,2 6,3 20,9 36,10 58,18 46,15 71,27 119,38 70,17 171,44 239,51 252,29 586,39 845,19 89,-7 184,-25 275,-36 124,-14 365,-92 453,-144 -33,-13 -158,42 -207,55 -273,71 -496,101 -787,100 -279,-1 -543,-2 -812,-72 -39,-10 -75,-22 -109,-32l-91 -27c-27,-1 -9,-2 -25,5zm3832 3837l0 -225 41 73c7,15 11,21 20,37l109 194c50,84 47,110 88,150 42,41 88,66 122,116l57 -40c-83,-20 -86,-29 -158,-125 -49,-67 4,-158 -115,-171 -3,-56 -16,-51 -48,-75 -82,-63 -90,-232 -124,-313l-85 -306c0,-3 -1,-4 -2,-7 -31,48 1,126 18,173 28,80 56,472 77,519zm-1836 -4275l-20 10c-25,7 -7,-2 -30,15 -16,9 -23,13 -36,22 -25,8 -66,25 -84,38 42,-1 65,-13 84,-38 32,-5 24,1 36,-22l30 -15 20 -10c33,-4 124,-68 144,-85 26,-22 16,-24 57,-29 -11,118 1,23 2,75l-5 85c-5,25 -51,89 -51,161l112 -197 -32 24c5,-31 14,-66 17,-92 7,-56 -10,-53 33,-78 17,13 11,-27 15,32l11 -38c-29,-16 -41,-32 -114,8l-189 134zm-4133 1159l97 -25c22,-8 4,-5 25,-50 9,-18 15,-25 26,-50l46 -98c20,-36 34,-58 53,-91 25,-45 41,-46 51,-93 -32,17 -56,62 -82,92 -51,63 -95,147 -134,218 -25,47 -54,59 -82,97zm1862 -1203l-3 -63c44,14 36,19 43,69 6,41 28,66 -7,92 6,-18 11,-15 -6,-15 -2,21 -10,22 6,15 -6,19 -8,13 12,13 16,-27 -10,-16 16,-23 3,53 6,13 -19,29l48 86c2,2 7,9 9,11 16,16 -6,0 19,14 0,-48 -21,-75 -33,-133 -11,-55 -4,-78 -7,-145 -31,-14 -48,-19 -94,-19 -3,43 -5,34 16,69zm4127 3401c48,63 -6,105 55,188 13,-20 32,-46 46,-66 -19,-25 -41,-63 -20,-102 -37,-22 -15,1 -27,-29 -27,1 -27,5 -54,9zm409 1127c71,12 -32,-108 -99,-114 7,59 84,112 99,114zm-2006 -4474l33 -114c-4,-59 2,-19 -15,-32 -43,25 -26,22 -33,78 -3,26 -12,61 -17,92l32 -24zm-2530 -54l27 83c17,0 12,-3 6,15 35,-26 13,-51 7,-92 -7,-50 1,-55 -43,-69l3 63zm42 117c25,-16 22,24 19,-29 -26,7 0,-4 -16,23l-3 6zm4093 3577c9,-47 11,-33 -27,-56l-19 84c56,-1 40,-7 73,19 9,-17 7,-11 10,-37 -8,-5 -3,-4 -19,-8 -4,-2 -11,-1 -18,-2zm-28 -361c0,44 17,8 56,28l9 -44c-44,-3 -65,-21 -65,16z"/>
 </g>
</svg>
