<?xml version="1.0" encoding="UTF-8"?>
<!DOCTYPE svg PUBLIC "-//W3C//DTD SVG 1.1//EN" "http://www.w3.org/Graphics/SVG/1.1/DTD/svg11.dtd">
<!-- Creator: CorelDRAW (Evaluation Version) -->
<svg xmlns="http://www.w3.org/2000/svg" xml:space="preserve" width="84.6006mm" height="95.4501mm" version="1.1" style="shape-rendering:geometricPrecision; text-rendering:geometricPrecision; image-rendering:optimizeQuality; fill-rule:evenodd; clip-rule:evenodd"
viewBox="0 0 1656.97 1869.46"
 xmlns:xlink="http://www.w3.org/1999/xlink"
 xmlns:xodm="http://www.corel.com/coreldraw/odm/2003">
 <defs>
  <style type="text/css">
   <![CDATA[
    .fil0 {fill:blue}
   ]]>
  </style>
 </defs>
 <g id="Layer_x0020_1">
  <metadata id="CorelCorpID_0Corel-Layer"/>
  <path class="fil0" d="M1071.36 107.59l271.72 109.17c33.51,13.41 49.76,18.07 73.83,46.65 71.24,84.58 122.06,340.9 141.78,459.34 7.63,45.86 13.93,92.22 20.77,139.87 4.54,31.59 19.21,150.52 20.49,180.31l6.49 73.84 6.48 73.85c1.14,36.43 7.29,74.8 9.1,111.39 0.22,4.52 1.05,13.55 1.82,18.91 4.17,28.77 4.12,61.13 7.77,91.98l3.31 36.84c1.22,24.75 4.52,49.79 6.4,73.92 1.91,24.54 3.22,51.18 6.22,74.1 0.72,5.51 1.4,14.54 1.63,19.1 1.2,24.33 4.54,49.18 6.42,73.91 2.38,31.37 0.15,18.26 -0.3,30.46 -0.3,8.16 1.68,12.62 1.68,21.28 -4.86,2.57 -8.1,5.29 -12.94,7.79 -12.96,6.69 -26.14,13.47 -40.32,17.98 -33.22,10.58 -58.74,11.8 -94.43,11.8 -6.87,0 -50.1,-2.82 -54.3,-10.48 -1.91,-3.48 -1.1,-9.38 -3.63,-13.21 -3.13,-4.76 -4.1,-1.07 -5.42,-10.13 -15.31,-105.42 -127.1,-782.24 -127.1,-800.49l-1.29 0c0,277.77 1.29,551.49 1.29,829.13 -10.07,2.35 -39.84,15.47 -52.62,19.93 -73.82,25.81 -155.8,45.93 -233.48,56.72 -20.11,2.79 -42.9,6.76 -63.81,8.73 -44.25,4.18 -87.28,9.19 -135.91,9.19 -141.94,0 -309.88,-28.34 -442.27,-74.64l-52.62 -19.93 -1.3 -821.36c0,8.35 -2.53,20.5 -3.88,28.51l-21.85 136.21c-24.23,145.63 -45.72,292.26 -69.96,437.88l-26.28 164.16c-1.43,8.56 -2.27,19.06 -4.37,28.02 -2.43,10.35 -2.67,1.69 -6.02,9.53 -5.63,13.19 2.57,13.36 -15.42,16.97 -44.49,8.92 -94.11,6.98 -136.43,-7.19 -6.81,-2.28 -52.63,-20.36 -52.63,-26.4 0,-7.94 3.67,-16.62 0.97,-23.21 -0.63,-1.54 -0.88,-0.77 -0.97,-0.1l5.54 -76.08c4.5,-34.74 4.96,-73.95 9.64,-109.54 0.71,-5.4 1.24,-13.5 1.57,-17.86l7.77 -90.69c1.47,-19.34 1.62,-36.73 4.52,-56.37 0.88,-5.96 0.62,-11.97 1.49,-17.94l4.54 -55.06c2.36,-30.42 6.22,-60.83 7.7,-90.76l9.4 -109.79c4.67,-35.74 5.68,-73.24 10.55,-108.63l8.29 -70.73c5.24,-47.93 11.93,-92.56 18.74,-139.31 3.18,-21.81 7.45,-45.98 11.1,-67.92 18.12,-108.98 58.2,-294.72 106,-390.19 19.51,-38.96 12.98,-26.59 38.53,-59.93 4.01,-5.23 5.71,-5.37 10.13,-9.3 21.35,-18.96 38.36,-23.3 64.65,-33.81l255.03 -102.53c9.11,-3.62 13.94,-3.69 17.07,-12.72 9.33,-26.9 29.19,-59.76 55.46,-72.8 55.33,-27.48 200.04,-30.4 264.86,-21.27 75.94,10.69 117.27,10.11 149.54,91.43 3.2,8.05 1.45,8.19 9.22,11.51z"/>
 </g>
</svg>
