<?xml version="1.0" encoding="UTF-8"?>
<!DOCTYPE svg PUBLIC "-//W3C//DTD SVG 1.1//EN" "http://www.w3.org/Graphics/SVG/1.1/DTD/svg11.dtd">
<!-- Creator: CorelDRAW (Evaluation Version) -->
<svg xmlns="http://www.w3.org/2000/svg" xml:space="preserve" width="84.637mm" height="163.715mm" version="1.1" style="shape-rendering:geometricPrecision; text-rendering:geometricPrecision; image-rendering:optimizeQuality; fill-rule:evenodd; clip-rule:evenodd"
viewBox="0 0 3610.73 6984.31"
 xmlns:xlink="http://www.w3.org/1999/xlink"
 xmlns:xodm="http://www.corel.com/coreldraw/odm/2003">
 <defs>
  <style type="text/css">
   <![CDATA[
    .fil0 {fill:lime}
   ]]>
  </style>
 </defs>
 <g id="Layer_x0020_1">
  <metadata id="CorelCorpID_0Corel-Layer"/>
  <g id="_1804324407536">
   <path class="fil0" d="M2280.03 135.34l46.98 64.03c32.87,52.17 94.58,211.38 78.17,251.14 14.49,68.87 14.47,54.12 26.62,140.37 6.98,49.49 7.21,104.29 7.21,159.15 0,55.28 -5.75,106.18 -8.47,157.89 -2.84,53.89 -5.63,105.11 -5.63,160.74 0,221.08 -2.82,439.03 -2.82,662.62l2.82 828.98c0,58.05 2.82,106.38 2.82,163.54l2.83 287.62c0.06,17.83 -1.71,26.01 -2.83,39.46 -16.55,3.86 -184.63,-1.48 -231.3,-0.09 -14.2,0.42 -15.61,2.84 -30.81,3.02 -176.84,2.18 -365.81,-0.22 -544.31,-0.12 -25.68,0.02 -41.62,-2.99 -64.82,-2.85l-169.28 0.1c-16.17,0.06 -21.45,-2.61 -33.77,-2.88 0,-14.16 2.95,-19.46 2.88,-36.59l0.09 -121.16c9.53,-115.13 2.08,-210.78 5.4,-321.68l2.91 -78.86c-0.02,-29.98 2.84,-48.98 2.82,-78.95 -0.06,-110.34 2.82,-211.37 2.82,-321.44 0,-54.35 2.82,-103.9 2.82,-160.72 0,-29.91 2.98,-51.97 2.84,-78.93 -0.7,-135.47 -5.74,-268.43 -5.66,-400.41 0.02,-29.98 -2.84,-48.98 -2.82,-78.95 0.02,-27.26 -0.12,-54.54 0.02,-81.79 0.14,-26.97 -2.84,-49.02 -2.84,-78.93 0,-27.28 0.14,-54.59 0.1,-81.87 -0.03,-16.94 -2.83,-20.44 -3.03,-36.45 -0.42,-34.3 2.28,-93.23 -0.03,-121.21 -1.99,-24.07 -5.78,-49.87 -5.61,-76.36 0.15,-23.33 7.98,-53.28 4.6,-74.82 -2.09,-13.29 -1.68,-23.62 -1.6,-37.95 0.09,-18.06 -2.8,-22.99 -2.99,-39.3 -0.82,-66.58 -1.33,-129.26 10.16,-193.07 2.39,-13.29 5.99,-24.1 6.86,-36.81 -4.72,2.53 -3.36,1.8 -4.61,1.38 -8.94,-95.4 12.82,-204.29 58.22,-284.75 112.08,-198.61 301.28,-196.72 347.17,-219.97l-25.91 2.72c-55.78,5.39 -111.87,27.91 -159.63,51.79 -39.8,19.9 -76.1,39.18 -107.43,70.2 -11.04,10.93 -19.91,20.11 -30.97,31.07 -20.08,19.9 -37.03,42.14 -53.89,64.53 -71.46,94.87 -123.01,202.47 -171.42,310.75 -38.08,85.2 -73.23,172.1 -102.83,260.91 -42.74,128.26 -87.13,256.91 -87.05,395.11 0.01,19.74 -0.06,39.48 0.01,59.22 0.09,23.19 -3.06,34.49 -2.85,56.36l-9.2 230.47c-4.94,36.01 -1.73,76.49 -5.02,116.23 -1.51,18.2 -2.69,34.22 -2.67,56.54 0,8.99 0.49,19.41 0.01,28.21 -0.68,12.54 -2.77,13.53 -2.95,28.07 -0.46,37.37 -1.3,82.17 -5.12,116.13 -6.99,62.31 1.21,175.98 -7.68,234.81 -1.56,10.32 -0.86,16.62 -1.11,27.08 -0.67,27.4 -5.89,58.1 -5.78,84.45 0.08,18.88 1.08,40.75 0.08,59.3 -0.98,18.37 -5.72,36.21 -5.75,56.28 -0.03,19.77 0.08,39.6 0.16,59.38l-12.97 288.73c-3.7,24.44 -0.47,72.12 -6.08,115.16 -3.71,28.47 -0.28,60.6 -0.64,89.59 -0.18,14.56 -2.31,15.56 -2.94,28.08 -2.08,41.65 -5.64,70.56 -5.64,115.61l-795.15 -0c-33.65,-0.08 -39.09,-2.4 -55.67,17.64 -13.22,15.97 -9.18,34.18 -9.18,61.31 0,32.62 5.36,91.12 -6.03,120.85 -6.68,17.45 -4.92,33.03 -5.13,51.26 -0.18,15.63 -2.82,17.95 -3.05,33.61 -0.73,50.04 5.55,82.66 -0.36,137.8l-8 209.11c0.13,24.45 -0.09,48.9 0.04,73.35 0.13,25.31 -2.85,42.94 -2.84,70.47 0,24.43 -0.08,48.89 0.01,73.32l-4.02 139.78c-3.34,22.11 -1.64,48.16 -1.63,71.68 0.04,60.78 -8.76,65.51 -2.96,135.49 4.09,49.47 -8.35,152.67 -8.31,211.32 0.03,50.5 -2.11,92.69 -2.71,141.1l-2.93 70.38c0,24.44 -0.11,48.9 0.02,73.33 0.24,46 -5.67,89.87 -5.66,138.15 0,48.95 1.87,98.25 -4.47,142.16 -4.9,33.92 -1.25,71.43 -1.1,106.04 0.07,16.37 -2.19,20.66 -2.9,33.76 -1.27,23.42 1.77,50.11 -0.14,73.18 -4.85,58.6 -1.93,156.03 -7.9,209.22 -4.31,38.42 -0.55,104.93 -0.4,146.22 0.17,46.84 -5.65,89.39 -5.65,138.16 0,47.06 3.1,102.05 -2.3,144.32 -7.18,56.3 -3.17,114.63 -3.25,171.57 -0.03,23.45 -5.17,45.55 -5.83,67.49 -0.35,11.76 0.9,25.03 -0.06,36.6 -4.54,54.87 0.49,119.64 -2.66,177.8 -7.04,130.51 -8.47,260.64 -8.47,391.92 55.78,29.51 133.78,91.65 186.46,115.25 19.35,8.67 200.08,126.76 223.07,143.49 18.25,13.28 26.39,6.55 49.96,6.2 81.38,-1.19 163.91,0.11 245.43,0.11 326.14,0 652.28,0 978.43,0 43.05,0 75.81,2.82 118.43,2.82l363.74 2.82 17.18 0c358.65,-0.06 717.37,-2.01 1076.01,0l15.49 0c47.18,-0.7 44.89,-10.24 74.87,-40.18 24.97,-24.93 203.31,-208.13 228.73,-228.06 7.08,-5.55 11.04,-7.29 14.71,-16.31 6.89,-16.92 2.58,-681.83 2.58,-733.35l0 -1711.54c0,-19.75 0.08,-39.51 -0.04,-59.25 -0.13,-22.33 2.91,-35.09 2.86,-59.17 -0.05,-20.68 0.04,-41.36 -0.01,-62.04 -0.06,-24.08 2.99,-36.84 2.86,-59.18 -0.48,-83.27 2.78,-158.57 2.78,-239.71 0,-80.67 -2.49,-165.24 -0.09,-245.41 1.14,-38.07 9.88,-75.69 4.1,-113.88 -4.63,-30.58 -1.03,-88.89 -1.23,-122.91 -0.12,-21.92 2.95,-33.16 2.87,-56.35 -0.11,-29.24 5,-175.45 -2.83,-183.29 -10.57,-5.07 -102.59,-0.08 -126.9,0.01 -24.58,0.09 -37.44,-2.93 -62.02,-2.84 -50.52,0.18 -581.38,3.04 -597.7,-0.07 -16.2,-3.08 -14.3,-35.14 -14.24,-50.61l0.07 -135.42c0.06,-25.68 -2.93,-39.67 -2.83,-64.84l-2.81 -194.57c0.02,-25.68 -2.99,-41.62 -2.85,-64.82 0.5,-88.24 -5.63,-172.32 -5.6,-259.45 0,-24.77 -1.19,-39.53 -3.07,-61.79 -4.38,-51.88 0.31,-110.65 -2.56,-163.8l-19.75 -611.85c0.06,-45.91 -16.04,-268.77 -21.7,-311.02 -5.61,-41.86 -9.01,-74.1 -17.55,-114.99 -16.03,-76.73 -37.18,-139.8 -61.84,-206.03 -12.4,-33.3 -24.63,-61.62 -38.29,-94.23 -13.19,-31.5 -26.53,-62.42 -41.08,-91.44l-160.72 -301.71c-22.76,-42.15 -51.55,-81.47 -81.38,-118.81l-30.64 -37.03c-6.16,-6.42 -11.24,-10.57 -17.27,-16.62 -3.4,-3.41 -9.04,-12.05 -15.59,-16.45z"/>
   <path class="fil0" d="M1773.96 8.46c-45.89,23.25 -235.09,21.37 -347.17,219.97 -45.4,80.46 -67.16,189.35 -58.22,284.75 1.25,0.43 -0.11,1.15 4.61,-1.38 4.47,-6.7 7.18,-25.97 10.24,-36.32l27.34 -71.36c16.21,-34 30.53,-62.08 58.95,-90.49 84.91,-84.91 250.77,-110.66 388.46,-110.62 67.22,0.02 130.23,1.33 186.52,10.85 140.38,23.75 321.78,88.31 360.49,236.64 16.41,-39.76 -45.3,-198.97 -78.17,-251.14l-46.98 -64.03c-81.16,-76 -161.08,-111.69 -276.4,-128.55 -20.15,-2.94 -46.89,-6.28 -68.53,-6.8l-84.28 0c-11.35,0.55 -23.95,1.63 -39.82,3.59 -8.31,1.03 -27.52,4.65 -37.04,4.87z"/>
  </g>
 </g>
</svg>
